<svg width="39" height="39" viewBox="0 0 39 39" xmlns="http://www.w3.org/2000/svg" xmlns:xlink="http://www.w3.org/1999/xlink" xmlns:serif="http://www.serif.com/" style="fill-rule:evenodd;clip-rule:evenodd;stroke-linejoin:round;stroke-miterlimit:2"><g><g><g><g><path d="M31.625 8.55 18.815 1.155 16.815.0l-2 1.155L2 8.55.0 9.705V29.12l2 1.155L14.815 37.67l2 1.155 2-1.155L31.63 30.275l2-1.155V9.705L31.625 8.55zm-2 18.26-12.81 7.4L4 26.81V12.015L16.815 4.62 29.63 12.015V26.81H29.625z" style="fill:#6d5af9;fill-rule:nonzero"></path><path d="M16.795 11.57c-3.185.0-5.765 2.58-5.765 5.765.0 2.48 1.57 4.585 3.765 5.4V27.05h4V22.735C20.99 21.92 22.56 19.815 22.56 17.335 22.555 14.15 19.975 11.57 16.795 11.57zm0 8.175c-1.335.0-2.415-1.08-2.415-2.415.0-1.33 1.08-2.415 2.415-2.415 1.33.0 2.415 1.08 2.415 2.415C19.205 18.665 18.125 19.745 16.795 19.745z" style="fill:#6d5af9;fill-rule:nonzero"></path></g></g></g></g></svg>